<svg xmlns="http://www.w3.org/2000/svg" viewBox="0 0 390 844">
  <defs>
    <filter id="soft" x="-20%" y="-20%" width="140%" height="140%">
      <feGaussianBlur stdDeviation="1.2"/>
    </filter>
  </defs>

  <!-- outer water edge (darker rim) -->
  <path d="M240 0 C210 60 250 110 220 160 C200 190 150 210 160 260 C170 305 240 340 230 385 C220 430 150 470 160 515 C170 560 240 600 230 650 C220 700 180 725 200 844"
        fill="none" stroke="#2f6a75" stroke-opacity=".55" stroke-width="68" stroke-linecap="round" filter="url(#soft)"/>

  <!-- main body (teal) -->
  <path d="M240 0 C210 60 250 110 220 160 C200 190 150 210 160 260 C170 305 240 340 230 385 C220 430 150 470 160 515 C170 560 240 600 230 650 C220 700 180 725 200 844"
        fill="none" stroke="#5aa0ad" stroke-opacity=".96" stroke-width="50" stroke-linecap="round"/>

  <!-- inner shade for depth -->
  <path d="M240 0 C210 60 250 110 220 160 C200 190 150 210 160 260 C170 305 240 340 230 385 C220 430 150 470 160 515 C170 560 240 600 230 650 C220 700 180 725 200 844"
        fill="none" stroke="#153b44" stroke-opacity=".35" stroke-width="24" stroke-linecap="round" filter="url(#soft)"/>

  <!-- inner bright streak (subtle) -->
  <path d="M240 0 C210 60 250 110 220 160 C200 190 150 210 160 260 C170 305 240 340 230 385 C220 430 150 470 160 515 C170 560 240 600 230 650 C220 700 180 725 200 844"
        fill="none" stroke="#e9ffff" stroke-opacity=".65" stroke-width="10" stroke-linecap="round"/>
</svg>
